<?xml version="1.0" encoding="UTF-8"?>
<svg width="120px" height="120px" viewBox="0 0 120 120" version="1.1" xmlns="http://www.w3.org/2000/svg" xmlns:xlink="http://www.w3.org/1999/xlink">
    <g id="Main" stroke="none" stroke-width="1" fill="none" fill-rule="evenodd">
        <g id="Polarsteps-compass---Monotone---Black" transform="translate(-30.000000, -30.000000)" fill="#000000">
            <path fill="currentColor" d="M90,150 C56.862915,150 30,123.137085 30,90 C30,56.862915 56.862915,30 90,30 C123.137085,30 150,56.862915 150,90 C150,123.137085 123.137085,150 90,150 Z M90,138 C116.509668,138 138,116.509668 138,90 C138,63.490332 116.509668,42 90,42 C63.490332,42 42,63.490332 42,90 C42,116.509668 63.490332,138 90,138 Z M79.159698,97.7964905 L85.3121832,95.2157242 C87.2621777,96.9622251 90.1165423,97.537902 92.6908792,96.4580519 C95.2652161,95.3782018 96.8553945,92.9381844 96.9768646,90.3227718 L103.125927,87.7434412 C103.357678,87.6462293 103.605672,87.5935925 103.856918,87.5882884 C104.960893,87.5649821 105.874729,88.4413198 105.898028,89.5456434 L105.89936,123.15606 C105.911039,123.709609 105.692796,124.243234 105.296601,124.629865 C104.506197,125.401189 103.240364,125.385518 102.469284,124.594864 L78.5017223,101.037498 C78.3262376,100.857558 78.1862374,100.646138 78.0890562,100.414314 C77.662042,99.3956793 78.1413846,98.2236396 79.159698,97.7964905 Z M100.805576,82.206901 L94.6530909,84.7876673 C92.7030965,83.0411664 89.8487318,82.4654895 87.2743949,83.5453396 C84.7000581,84.6251897 83.1098796,87.0652071 82.9884095,89.6806196 L76.8393469,92.2599503 C76.607596,92.3571622 76.3596017,92.409799 76.1083557,92.4151031 C75.0043809,92.4384094 74.090545,91.5620717 74.0672461,90.4577481 L74.0659139,56.8473319 C74.0542352,56.2937824 74.2724778,55.7601577 74.6686731,55.3735267 C75.4590772,54.602203 76.7249103,54.6178731 77.4959903,55.408527 L101.463552,78.9658939 C101.639037,79.1458333 101.779037,79.357253 101.876218,79.5890771 C102.303232,80.6077122 101.823889,81.7797518 100.805576,82.206901 Z" id="Path"></path>
        </g>
    </g>
</svg>
